<mxfile host="app.diagrams.net" agent="Mozilla/5.0 (X11; Linux x86_64) AppleWebKit/537.36 (KHTML, like Gecko) Chrome/131.0.0.0 Safari/537.36" version="26.0.6">
  <diagram name="Page-1" id="TV7i3QS74W-u01C6ipRv">
    <mxGraphModel dx="1434" dy="1316" grid="0" gridSize="10" guides="1" tooltips="1" connect="1" arrows="1" fold="1" page="0" pageScale="1" pageWidth="827" pageHeight="1169" math="0" shadow="0">
      <root>
        <mxCell id="0" />
        <mxCell id="1" parent="0" />
        <mxCell id="Ft8mEgO6lCte28nf-07k-1" value="" style="rounded=1;whiteSpace=wrap;html=1;fillColor=#fa6800;fontColor=#000000;strokeColor=#C73500;" vertex="1" parent="1">
          <mxGeometry x="4" y="-152" width="467" height="90" as="geometry" />
        </mxCell>
        <mxCell id="Ft8mEgO6lCte28nf-07k-3" value="" style="rounded=0;whiteSpace=wrap;html=1;fillColor=light-dark(#F9F7ED,#F9F9FF);strokeColor=#36393d;" vertex="1" parent="1">
          <mxGeometry x="29" y="-137" width="415" height="60" as="geometry" />
        </mxCell>
        <mxCell id="Ft8mEgO6lCte28nf-07k-5" value="Insert text" style="text;strokeColor=none;fillColor=none;html=1;fontSize=24;fontStyle=1;verticalAlign=middle;align=center;fontColor=light-dark(#000000,#474747);" vertex="1" parent="1">
          <mxGeometry x="54" y="-129" width="356" height="40" as="geometry" />
        </mxCell>
        <mxCell id="Ft8mEgO6lCte28nf-07k-6" value="" style="endArrow=classic;html=1;rounded=0;fontSize=12;startSize=8;endSize=8;curved=1;exitX=0.5;exitY=1;exitDx=0;exitDy=0;" edge="1" parent="1" source="Ft8mEgO6lCte28nf-07k-1">
          <mxGeometry width="50" height="50" relative="1" as="geometry">
            <mxPoint x="294" y="91" as="sourcePoint" />
            <mxPoint x="238" y="5" as="targetPoint" />
          </mxGeometry>
        </mxCell>
        <mxCell id="Ft8mEgO6lCte28nf-07k-7" value="&amp;lt;press enter&amp;gt;" style="text;strokeColor=none;fillColor=none;html=1;fontSize=24;fontStyle=1;verticalAlign=middle;align=center;" vertex="1" parent="1">
          <mxGeometry x="277" y="-52" width="100" height="40" as="geometry" />
        </mxCell>
        <mxCell id="Ft8mEgO6lCte28nf-07k-8" value="" style="rounded=1;whiteSpace=wrap;html=1;fillColor=light-dark(#000000,#A3A3A3);" vertex="1" parent="1">
          <mxGeometry x="51.5" y="7" width="372" height="274" as="geometry" />
        </mxCell>
        <mxCell id="Ft8mEgO6lCte28nf-07k-10" value="&lt;ol&gt;&lt;li&gt;&amp;lt;ul cl=list-main&amp;gt;&lt;/li&gt;&lt;ol&gt;&lt;li&gt;&amp;lt;li cl=list-item&amp;gt;&lt;/li&gt;&lt;ol&gt;&lt;li&gt;&amp;lt;nav&amp;gt;&lt;/li&gt;&lt;ol&gt;&lt;li&gt;&amp;lt;checkbox, text&amp;gt;&lt;/li&gt;&lt;/ol&gt;&lt;/ol&gt;&lt;/ol&gt;&lt;/ol&gt;" style="text;strokeColor=none;fillColor=none;html=1;whiteSpace=wrap;verticalAlign=middle;overflow=hidden;fontColor=light-dark(#000000,#000000);fontSize=18;" vertex="1" parent="1">
          <mxGeometry x="64" y="23" width="353" height="245" as="geometry" />
        </mxCell>
      </root>
    </mxGraphModel>
  </diagram>
</mxfile>
